<?xml version="1.0" encoding="UTF-8" standalone="no"?>
<!-- Created with Inkscape (http://www.inkscape.org/) -->

<svg
   version="1.1"
   id="svg1"
   width="837.10236"
   height="236.98904"
   viewBox="0 0 837.10239 236.98904"
   xmlns="http://www.w3.org/2000/svg"
   xmlns:svg="http://www.w3.org/2000/svg">
  <defs
     id="defs1" />
  <g
     id="layer-MC0"
     transform="translate(-134.10379,-204.29215)">
    <path
       id="path1"
       d="m 0,0 c -9.527,0 -17.297,-7.77 -17.297,-17.297 0,-9.526 7.77,-17.297 17.297,-17.297 9.527,0 17.297,7.771 17.297,17.297 C 17.297,-7.77 9.527,0 0,0"
       style="fill:#003da7;fill-opacity:1;fill-rule:nonzero;stroke:none"
       transform="matrix(1.3333333,0,0,-1.3333333,355.47813,242.58773)" />
    <path
       id="path2"
       d="m 0,0 c 0,-47.491 38.732,-86.227 86.23,-86.227 30.822,0 57.959,16.327 73.21,40.767 v -37.148 h 28.371 V 13.057 H 125.027 V -14.88 h 17.241 c -6.601,-24.761 -29.246,-43.103 -56.041,-43.103 -31.938,0 -57.984,26.045 -57.984,57.983 0,31.668 25.613,57.542 57.181,57.975 V 86.221 C 38.296,85.785 0,47.225 0,0"
       style="fill:#003da7;fill-opacity:1;fill-rule:nonzero;stroke:none"
       transform="matrix(1.3333333,0,0,-1.3333333,134.1036,326.31187)" />
    <path
       id="path3"
       d="m 0,0 c 9.482,0 17.215,7.733 17.215,17.214 0,9.482 -7.733,17.215 -17.215,17.215 -9.482,0 -17.215,-7.733 -17.215,-17.215 C -17.215,7.733 -9.482,0 0,0"
       style="fill:#003da7;fill-opacity:1;fill-rule:nonzero;stroke:none"
       transform="matrix(1.3333333,0,0,-1.3333333,278.03947,250.19747)" />
    <path
       id="path4"
       d="M 0,0 H 4.642 V -12.482 H 17.869 V 0 h 4.643 v -31.446 h -4.643 v 14.453 H 4.642 V -31.446 H 0 Z"
       style="fill:#003da7;fill-opacity:1;fill-rule:nonzero;stroke:none"
       transform="matrix(1.3333333,0,0,-1.3333333,444.94467,338.10467)" />
    <path
       id="path5"
       d="m 0,0 c 1.46,1.489 2.19,3.372 2.19,5.65 0,2.248 -0.73,4.161 -2.19,5.737 -1.489,1.548 -3.314,2.321 -5.475,2.321 -2.161,0 -3.971,-0.773 -5.431,-2.321 -1.46,-1.548 -2.189,-3.46 -2.189,-5.737 0,-2.278 0.729,-4.161 2.189,-5.65 1.46,-1.519 3.27,-2.277 5.431,-2.277 2.19,0 4.015,0.758 5.475,2.277 m -14.19,-2.934 c -2.307,2.365 -3.46,5.24 -3.46,8.627 0,3.387 1.182,6.278 3.547,8.672 2.365,2.394 5.241,3.592 8.628,3.592 3.417,0 6.307,-1.198 8.672,-3.592 C 5.533,12 6.701,9.11 6.701,5.693 6.701,2.306 5.547,-0.569 3.241,-2.934 0.905,-5.329 -2,-6.526 -5.475,-6.526 c -3.475,0 -6.379,1.197 -8.715,3.592"
       style="fill:#003da7;fill-opacity:1;fill-rule:nonzero;stroke:none"
       transform="matrix(1.3333333,0,0,-1.3333333,506.20227,372.1496)" />
    <path
       id="path6"
       d="M 0,0 2.803,3.066 C 4.321,1.314 5.941,0.438 7.664,0.438 c 0.935,0 1.723,0.277 2.366,0.832 0.671,0.526 1.007,1.183 1.007,1.971 0,1.167 -0.964,2.248 -2.891,3.241 -2.569,1.343 -4.351,2.511 -5.343,3.504 -1.226,1.226 -1.839,2.686 -1.839,4.38 0,1.839 0.671,3.372 2.014,4.598 1.314,1.226 2.978,1.84 4.993,1.84 2.657,0 5.007,-1.168 7.051,-3.504 l -2.759,-2.847 c -1.518,1.46 -2.978,2.19 -4.38,2.19 -0.788,0 -1.445,-0.205 -1.971,-0.613 -0.525,-0.438 -0.788,-0.979 -0.788,-1.621 0,-0.993 0.817,-1.912 2.453,-2.759 2.861,-1.46 4.802,-2.686 5.825,-3.679 1.255,-1.256 1.883,-2.774 1.883,-4.555 0,-2.014 -0.7,-3.694 -2.102,-5.037 C 11.723,-2.993 9.839,-3.679 7.533,-3.679 4.38,-3.679 1.868,-2.453 0,0"
       style="fill:#003da7;fill-opacity:1;fill-rule:nonzero;stroke:none"
       transform="matrix(1.3333333,0,0,-1.3333333,519.108,375.94547)" />
    <path
       id="path7"
       d="m 0,0 c 1.46,1.577 2.19,3.504 2.19,5.781 0,2.219 -0.701,4.102 -2.102,5.65 -1.489,1.605 -3.344,2.409 -5.563,2.409 -2.248,0 -4.102,-0.76 -5.562,-2.278 -1.46,-1.548 -2.19,-3.489 -2.19,-5.825 0,-2.394 0.774,-4.365 2.321,-5.912 1.46,-1.461 3.27,-2.19 5.431,-2.19 2.161,0 3.986,0.788 5.475,2.365 m -17.475,17.387 h 4.467 v -3.372 c 2.219,2.657 4.964,3.986 8.234,3.986 3.212,0 5.927,-1.168 8.147,-3.504 2.247,-2.336 3.372,-5.241 3.372,-8.716 0,-3.416 -1.125,-6.322 -3.372,-8.715 -2.249,-2.365 -4.965,-3.548 -8.147,-3.548 -3.153,0 -5.898,1.27 -8.234,3.81 v -11.694 h -4.467 z"
       style="fill:#003da7;fill-opacity:1;fill-rule:nonzero;stroke:none"
       transform="matrix(1.3333333,0,0,-1.3333333,569.4448,372.20813)" />
    <path
       id="path8"
       d="m 439.084,290.19 h 4.467 v -23.256 h -4.467 z m 0,4.293 c -0.613,0.641 -0.919,1.401 -0.919,2.277 0,0.847 0.306,1.562 0.919,2.146 0.613,0.584 1.358,0.876 2.234,0.876 0.846,0 1.576,-0.307 2.19,-0.92 0.613,-0.642 0.919,-1.401 0.919,-2.277 0,-0.847 -0.306,-1.577 -0.919,-2.19 -0.614,-0.613 -1.344,-0.92 -2.19,-0.92 -0.876,0 -1.621,0.336 -2.234,1.008"
       style="fill:#003da7;fill-opacity:1;fill-rule:nonzero;stroke:none"
       transform="matrix(1.3333333,0,0,-1.3333333,0,735.94533)" />
    <path
       id="path9"
       d="M 0,0 H -3.548 V 3.898 H 0 v 8.628 H 4.467 V 3.898 H 8.54 V 0 H 4.467 V -19.358 H 0 Z"
       style="fill:#003da7;fill-opacity:1;fill-rule:nonzero;stroke:none"
       transform="matrix(1.3333333,0,0,-1.3333333,602.20453,354.222)" />
    <path
       id="path10"
       d="m 0,0 c 1.547,1.518 2.321,3.489 2.321,5.912 0,2.336 -0.744,4.278 -2.233,5.826 -1.489,1.517 -3.329,2.277 -5.519,2.277 -2.249,0 -4.102,-0.803 -5.562,-2.409 -1.402,-1.548 -2.102,-3.431 -2.102,-5.65 0,-2.277 0.729,-4.204 2.19,-5.781 1.459,-1.577 3.269,-2.365 5.43,-2.365 2.161,0 3.986,0.73 5.475,2.19 m -14.278,-2.759 c -2.248,2.393 -3.372,5.299 -3.372,8.715 0,3.475 1.109,6.38 3.328,8.716 2.219,2.336 4.934,3.504 8.147,3.504 3.299,0 6.044,-1.329 8.234,-3.986 v 3.373 H 6.526 V -5.694 H 2.059 v 3.198 c -2.278,-2.541 -5.023,-3.811 -8.234,-3.811 -3.183,0 -5.884,1.183 -8.103,3.548"
       style="fill:#003da7;fill-opacity:1;fill-rule:nonzero;stroke:none"
       transform="matrix(1.3333333,0,0,-1.3333333,640.27827,372.4416)" />
    <path
       id="path11"
       d="m 497.202,266.934 h -4.467 v 32.235 h 4.467 z"
       style="fill:#003da7;fill-opacity:1;fill-rule:nonzero;stroke:none"
       transform="matrix(1.3333333,0,0,-1.3333333,0,735.94533)" />
    <path
       id="path12"
       d="m 0,0 c 1.547,1.518 2.322,3.489 2.322,5.912 0,2.336 -0.731,4.278 -2.19,5.826 -1.489,1.517 -3.329,2.277 -5.519,2.277 -2.249,0 -4.102,-0.803 -5.562,-2.409 -1.402,-1.548 -2.103,-3.431 -2.103,-5.65 0,-2.277 0.73,-4.204 2.19,-5.781 1.46,-1.577 3.27,-2.365 5.431,-2.365 2.161,0 3.971,0.73 5.431,2.19 m -14.234,-2.759 c -2.248,2.393 -3.372,5.299 -3.372,8.715 0,3.475 1.109,6.38 3.328,8.716 2.219,2.336 4.934,3.504 8.146,3.504 3.3,0 6.045,-1.329 8.235,-3.986 V 26.541 H 6.57 V -5.694 H 2.103 v 3.198 c -2.278,-2.541 -5.023,-3.811 -8.235,-3.811 -3.182,0 -5.883,1.183 -8.102,3.548"
       style="fill:#003da7;fill-opacity:1;fill-rule:nonzero;stroke:none"
       transform="matrix(1.3333333,0,0,-1.3333333,709.2428,372.4416)" />
    <path
       id="path13"
       d="m 0,0 c -1.022,3.737 -3.533,5.606 -7.533,5.606 -3.708,0 -6.161,-1.869 -7.358,-5.606 z m -16.38,-11.256 c -2.161,2.278 -3.241,5.139 -3.241,8.584 0,3.329 1.08,6.161 3.241,8.497 2.306,2.511 5.24,3.767 8.803,3.767 3.533,0 6.453,-1.168 8.76,-3.504 C 3.46,3.752 4.599,0.773 4.599,-2.847 v -0.788 h -19.797 c 0.204,-2.19 1.008,-3.927 2.409,-5.212 1.402,-1.285 3.182,-1.927 5.344,-1.927 2.803,0 5.299,1.299 7.489,3.898 l 3.372,-2.409 c -2.482,-3.738 -6.103,-5.606 -10.861,-5.606 -3.68,0 -6.658,1.211 -8.935,3.635"
       style="fill:#003da7;fill-opacity:1;fill-rule:nonzero;stroke:none"
       transform="matrix(1.3333333,0,0,-1.3333333,751.34627,360.99613)" />
    <path
       id="path14"
       d="m 0,0 v -31.446 h -3.328 l -16.994,22.249 v -22.249 h -4.642 V 0 h 3.328 L -4.642,-22.337 V 0 Z"
       style="fill:#003da7;fill-opacity:1;fill-rule:nonzero;stroke:none"
       transform="matrix(1.3333333,0,0,-1.3333333,478.2304,394.2548)" />
    <path
       id="path15"
       d="m 0,0 c -1.022,3.737 -3.533,5.606 -7.533,5.606 -3.708,0 -6.161,-1.869 -7.358,-5.606 z m -16.38,-11.256 c -2.161,2.278 -3.241,5.139 -3.241,8.584 0,3.329 1.08,6.161 3.241,8.497 2.306,2.511 5.24,3.767 8.803,3.767 3.533,0 6.453,-1.168 8.76,-3.504 C 3.46,3.752 4.599,0.773 4.599,-2.847 v -0.788 h -19.797 c 0.204,-2.19 1.008,-3.927 2.409,-5.212 1.402,-1.285 3.182,-1.927 5.344,-1.927 2.803,0 5.299,1.299 7.489,3.898 l 3.372,-2.409 c -2.482,-3.738 -6.103,-5.606 -10.861,-5.606 -3.679,0 -6.658,1.211 -8.935,3.635"
       style="fill:#003da7;fill-opacity:1;fill-rule:nonzero;stroke:none"
       transform="matrix(1.3333333,0,0,-1.3333333,512.15813,417.14627)" />
    <path
       id="path16"
       d="M 0,0 V 12.307 H 4.511 V -0.35 c 0,-4.672 1.898,-7.008 5.694,-7.008 3.766,0 5.65,2.248 5.65,6.745 v 12.92 H 20.41 V 0.088 c 0,-3.796 -0.891,-6.687 -2.672,-8.672 -1.752,-1.957 -4.264,-2.935 -7.533,-2.935 C 3.401,-11.519 0,-7.68 0,0"
       style="fill:#003da7;fill-opacity:1;fill-rule:nonzero;stroke:none"
       transform="matrix(1.3333333,0,0,-1.3333333,525.12147,421.58413)" />
    <path
       id="path17"
       d="m 0,0 h 4.073 v -3.153 c 1.401,2.511 3.212,3.766 5.431,3.766 1.051,0 1.912,-0.263 2.584,-0.788 L 10.424,-3.898 C 9.694,-3.606 9.138,-3.46 8.759,-3.46 7.504,-3.46 6.482,-4.132 5.693,-5.475 4.876,-6.906 4.467,-8.862 4.467,-11.343 V -23.256 H 0 Z"
       style="fill:#003da7;fill-opacity:1;fill-rule:nonzero;stroke:none"
       transform="matrix(1.3333333,0,0,-1.3333333,560.9176,405.17507)" />
    <path
       id="path18"
       d="m 0,0 c 1.46,1.489 2.19,3.372 2.19,5.65 0,2.248 -0.73,4.161 -2.19,5.737 -1.489,1.548 -3.314,2.321 -5.474,2.321 -2.162,0 -3.972,-0.773 -5.431,-2.321 -1.461,-1.548 -2.19,-3.46 -2.19,-5.737 0,-2.278 0.729,-4.161 2.19,-5.65 1.459,-1.519 3.269,-2.278 5.431,-2.278 2.189,0 4.014,0.759 5.474,2.278 m -14.19,-2.934 c -2.307,2.365 -3.46,5.24 -3.46,8.627 0,3.387 1.182,6.278 3.547,8.672 2.365,2.394 5.241,3.592 8.629,3.592 3.416,0 6.306,-1.198 8.671,-3.592 C 5.533,12 6.701,9.11 6.701,5.693 6.701,2.306 5.547,-0.569 3.241,-2.934 0.905,-5.329 -2,-6.526 -5.474,-6.526 c -3.476,0 -6.38,1.197 -8.716,3.592"
       style="fill:#003da7;fill-opacity:1;fill-rule:nonzero;stroke:none"
       transform="matrix(1.3333333,0,0,-1.3333333,602.14613,428.29973)" />
    <path
       id="path19"
       d="m 0,0 h 4.073 v -3.153 c 1.401,2.511 3.212,3.766 5.431,3.766 1.051,0 1.912,-0.263 2.584,-0.788 L 10.424,-3.898 C 9.694,-3.606 9.138,-3.46 8.759,-3.46 7.504,-3.46 6.482,-4.132 5.693,-5.475 4.876,-6.906 4.467,-8.862 4.467,-11.343 V -23.256 H 0 Z"
       style="fill:#003da7;fill-opacity:1;fill-rule:nonzero;stroke:none"
       transform="matrix(1.3333333,0,0,-1.3333333,618.2048,405.17507)" />
    <path
       id="path20"
       d="m 0,0 c -1.022,3.737 -3.533,5.606 -7.533,5.606 -3.708,0 -6.161,-1.869 -7.358,-5.606 z m -16.38,-11.256 c -2.161,2.278 -3.241,5.139 -3.241,8.584 0,3.329 1.08,6.161 3.241,8.497 2.306,2.511 5.24,3.767 8.803,3.767 3.533,0 6.453,-1.168 8.76,-3.504 C 3.46,3.752 4.599,0.773 4.599,-2.847 v -0.788 h -19.797 c 0.204,-2.19 1.008,-3.927 2.409,-5.212 1.402,-1.285 3.182,-1.927 5.344,-1.927 2.803,0 5.299,1.299 7.489,3.898 l 3.372,-2.409 c -2.482,-3.738 -6.103,-5.606 -10.861,-5.606 -3.679,0 -6.658,1.211 -8.935,3.635"
       style="fill:#003da7;fill-opacity:1;fill-rule:nonzero;stroke:none"
       transform="matrix(1.3333333,0,0,-1.3333333,662.06107,417.14627)" />
    <path
       id="path21"
       d="m 0,0 h 4.467 v -12.219 c 2.336,2.569 4.92,3.854 7.752,3.854 2.453,0 4.409,-0.789 5.869,-2.365 1.577,-1.694 2.365,-4.059 2.365,-7.096 v -14.409 h -4.467 v 11.782 c 0,2.715 -0.336,4.686 -1.007,5.912 -0.789,1.402 -2.118,2.103 -3.986,2.103 -1.986,0 -3.577,-0.789 -4.774,-2.366 -1.168,-1.548 -1.752,-3.503 -1.752,-5.868 V -32.235 H 0 Z"
       style="fill:#003da7;fill-opacity:1;fill-rule:nonzero;stroke:none"
       transform="matrix(1.3333333,0,0,-1.3333333,675.37493,393.2036)" />
    <path
       id="path22"
       d="m 0,0 c 1.547,1.518 2.321,3.489 2.321,5.912 0,2.336 -0.744,4.278 -2.233,5.826 -1.489,1.517 -3.329,2.277 -5.519,2.277 -2.249,0 -4.102,-0.803 -5.562,-2.409 -1.402,-1.548 -2.102,-3.431 -2.102,-5.65 0,-2.277 0.729,-4.204 2.19,-5.781 1.459,-1.577 3.269,-2.365 5.431,-2.365 2.16,0 3.985,0.73 5.474,2.19 m -14.278,-2.759 c -2.248,2.393 -3.372,5.299 -3.372,8.715 0,3.475 1.109,6.38 3.328,8.716 2.219,2.336 4.934,3.504 8.147,3.504 3.299,0 6.044,-1.329 8.234,-3.986 v 3.373 H 6.526 V -5.694 H 2.059 v 3.197 c -2.278,-2.54 -5.023,-3.81 -8.234,-3.81 -3.183,0 -5.884,1.183 -8.103,3.548"
       style="fill:#003da7;fill-opacity:1;fill-rule:nonzero;stroke:none"
       transform="matrix(1.3333333,0,0,-1.3333333,732.89453,428.59173)" />
    <path
       id="path23"
       d="m 0,0 c 1.46,1.547 2.19,3.445 2.19,5.694 0,2.248 -0.716,4.16 -2.146,5.737 -1.489,1.605 -3.344,2.409 -5.562,2.409 -2.162,0 -3.971,-0.73 -5.431,-2.19 -1.548,-1.518 -2.322,-3.475 -2.322,-5.869 0,-2.365 0.745,-4.321 2.234,-5.869 1.46,-1.547 3.299,-2.321 5.519,-2.321 2.19,0 4.029,0.803 5.518,2.409 m -13.008,-2.628 v -3.328 h -4.467 v 32.234 h 4.467 V 14.059 c 2.278,2.569 5.037,3.854 8.278,3.854 3.182,0 5.883,-1.168 8.102,-3.504 2.219,-2.365 3.329,-5.285 3.329,-8.759 0,-3.416 -1.139,-6.307 -3.416,-8.672 -2.249,-2.365 -4.964,-3.547 -8.146,-3.547 -3.154,0 -5.869,1.313 -8.147,3.941"
       style="fill:#003da7;fill-opacity:1;fill-rule:nonzero;stroke:none"
       transform="matrix(1.3333333,0,0,-1.3333333,773.7136,428.24147)" />
    <path
       id="path24"
       d="m 592.285,248.078 h 4.467 v -23.256 h -4.467 z m 0,4.292 c -0.613,0.642 -0.919,1.401 -0.919,2.277 0,0.847 0.306,1.562 0.919,2.146 0.613,0.584 1.358,0.876 2.234,0.876 0.847,0 1.577,-0.306 2.19,-0.919 0.613,-0.643 0.92,-1.402 0.92,-2.278 0,-0.847 -0.307,-1.577 -0.92,-2.19 -0.613,-0.613 -1.343,-0.919 -2.19,-0.919 -0.876,0 -1.621,0.335 -2.234,1.007"
       style="fill:#003da7;fill-opacity:1;fill-rule:nonzero;stroke:none"
       transform="matrix(1.3333333,0,0,-1.3333333,0,735.94533)" />
    <path
       id="path25"
       d="m 607.176,224.822 h -4.467 v 32.235 h 4.467 z"
       style="fill:#003da7;fill-opacity:1;fill-rule:nonzero;stroke:none"
       transform="matrix(1.3333333,0,0,-1.3333333,0,735.94533)" />
    <path
       id="path26"
       d="m 613.088,248.078 h 4.467 v -23.256 h -4.467 z m 0,4.292 c -0.613,0.642 -0.919,1.401 -0.919,2.277 0,0.847 0.306,1.562 0.919,2.146 0.613,0.584 1.358,0.876 2.234,0.876 0.846,0 1.576,-0.306 2.19,-0.919 0.613,-0.643 0.919,-1.402 0.919,-2.278 0,-0.847 -0.306,-1.577 -0.919,-2.19 -0.614,-0.613 -1.344,-0.919 -2.19,-0.919 -0.876,0 -1.621,0.335 -2.234,1.007"
       style="fill:#003da7;fill-opacity:1;fill-rule:nonzero;stroke:none"
       transform="matrix(1.3333333,0,0,-1.3333333,0,735.94533)" />
    <path
       id="path27"
       d="M 0,0 H -3.548 V 3.898 H 0 v 8.628 H 4.467 V 3.898 H 8.54 V 0 H 4.467 V -19.358 H 0 Z"
       style="fill:#003da7;fill-opacity:1;fill-rule:nonzero;stroke:none"
       transform="matrix(1.3333333,0,0,-1.3333333,834.20987,410.37213)" />
    <path
       id="path28"
       d="m 0,0 c 1.547,1.518 2.321,3.489 2.321,5.912 0,2.336 -0.744,4.278 -2.233,5.826 -1.489,1.517 -3.329,2.277 -5.519,2.277 -2.249,0 -4.102,-0.803 -5.562,-2.409 -1.402,-1.548 -2.102,-3.431 -2.102,-5.65 0,-2.277 0.729,-4.204 2.19,-5.781 1.459,-1.577 3.269,-2.365 5.431,-2.365 2.16,0 3.985,0.73 5.474,2.19 m -14.278,-2.759 c -2.248,2.393 -3.372,5.299 -3.372,8.715 0,3.475 1.109,6.38 3.328,8.716 2.219,2.336 4.934,3.504 8.147,3.504 3.299,0 6.044,-1.329 8.234,-3.986 v 3.373 H 6.526 V -5.694 H 2.059 v 3.197 c -2.278,-2.54 -5.023,-3.81 -8.234,-3.81 -3.183,0 -5.884,1.183 -8.103,3.548"
       style="fill:#003da7;fill-opacity:1;fill-rule:nonzero;stroke:none"
       transform="matrix(1.3333333,0,0,-1.3333333,872.28307,428.59173)" />
    <path
       id="path29"
       d="m 0,0 c -2.307,2.306 -3.46,5.197 -3.46,8.672 0,3.474 1.182,6.394 3.547,8.759 2.365,2.365 5.358,3.548 8.979,3.548 4.642,0 8.087,-1.577 10.336,-4.73 L 16.117,13.49 c -1.898,2.16 -4.263,3.24 -7.095,3.24 -2.307,0 -4.22,-0.773 -5.737,-2.321 -1.461,-1.548 -2.19,-3.46 -2.19,-5.737 0,-2.307 0.729,-4.205 2.19,-5.694 1.459,-1.489 3.343,-2.233 5.65,-2.233 2.831,0 5.226,1.065 7.182,3.197 L 19.358,1.183 C 16.847,-1.942 13.372,-3.504 8.935,-3.504 5.284,-3.504 2.306,-2.336 0,0"
       style="fill:#003da7;fill-opacity:1;fill-rule:nonzero;stroke:none"
       transform="matrix(1.3333333,0,0,-1.3333333,892.72213,432.3292)" />
    <path
       id="path30"
       d="m 694.286,248.078 h 4.467 v -23.256 h -4.467 z m 0,4.292 c -0.613,0.642 -0.919,1.401 -0.919,2.277 0,0.847 0.306,1.562 0.919,2.146 0.614,0.584 1.358,0.876 2.234,0.876 0.847,0 1.577,-0.306 2.19,-0.919 0.613,-0.643 0.92,-1.402 0.92,-2.278 0,-0.847 -0.307,-1.577 -0.92,-2.19 -0.613,-0.613 -1.343,-0.919 -2.19,-0.919 -0.876,0 -1.62,0.335 -2.234,1.007"
       style="fill:#003da7;fill-opacity:1;fill-rule:nonzero;stroke:none"
       transform="matrix(1.3333333,0,0,-1.3333333,0,735.94533)" />
    <path
       id="path31"
       d="m 0,0 h 5.65 l -6.614,-6.395 h -3.503 z m 3.766,-28.03 c 1.46,1.489 2.19,3.372 2.19,5.65 0,2.248 -0.73,4.16 -2.19,5.737 -1.489,1.547 -3.314,2.321 -5.474,2.321 -2.161,0 -3.971,-0.774 -5.431,-2.321 -1.46,-1.548 -2.19,-3.46 -2.19,-5.737 0,-2.278 0.73,-4.161 2.19,-5.65 1.46,-1.519 3.27,-2.278 5.431,-2.278 2.19,0 4.014,0.759 5.474,2.278 m -14.19,-2.935 c -2.307,2.365 -3.46,5.241 -3.46,8.628 0,3.387 1.183,6.278 3.548,8.672 2.365,2.394 5.241,3.592 8.628,3.592 3.416,0 6.307,-1.198 8.672,-3.592 2.335,-2.365 3.504,-5.255 3.504,-8.672 0,-3.387 -1.154,-6.263 -3.46,-8.628 -2.337,-2.394 -5.242,-3.591 -8.716,-3.591 -3.475,0 -6.38,1.197 -8.716,3.591"
       style="fill:#003da7;fill-opacity:1;fill-rule:nonzero;stroke:none"
       transform="matrix(1.3333333,0,0,-1.3333333,957.24867,390.92613)" />
    <path
       id="path32"
       d="m 0,0 v -0.084 c 0,-9.735 -2.73,-17.556 -8.187,-23.464 -5.458,-5.852 -12.773,-8.777 -21.944,-8.777 -9.79,0 -17.781,3.207 -23.969,9.621 -5.908,6.133 -8.862,13.644 -8.862,22.535 0,8.721 3.009,16.092 9.03,22.113 6.246,6.189 14.066,9.284 23.464,9.284 10.521,0 19.243,-3.77 26.164,-11.309 l -8.103,-8.018 c -5.232,5.513 -11.225,8.271 -17.977,8.271 -6.021,0 -11.029,-2.026 -15.023,-6.077 -3.939,-3.939 -5.908,-8.75 -5.908,-14.433 0,-5.852 2.11,-10.803 6.33,-14.854 4.163,-4.051 9.284,-6.077 15.36,-6.077 7.877,0 13.42,3.432 16.628,10.297 H -30.553 V 0 Z"
       style="fill:#54565b;fill-opacity:1;fill-rule:nonzero;stroke:none"
       transform="matrix(1.3333333,0,0,-1.3333333,523.3676,267.68307)" />
    <path
       id="path33"
       d="M 0,0 V 24.139 H 11.225 V 0.76 c 0,-8.159 2.813,-12.238 8.44,-12.238 5.626,0 8.44,3.91 8.44,11.731 V 24.139 H 39.331 V 0.253 c 0,-7.089 -1.745,-12.548 -5.233,-16.373 -3.376,-3.771 -8.187,-5.655 -14.433,-5.655 C 6.554,-21.775 0,-14.517 0,0"
       style="fill:#54565b;fill-opacity:1;fill-rule:nonzero;stroke:none"
       transform="matrix(1.3333333,0,0,-1.3333333,533.7204,281.1872)" />
    <path
       id="path34"
       d="M 0,0 H -5.739 V 9.706 H 0 V 26.248 H 11.225 V 9.706 h 6.668 V 0 H 11.225 V -35.111 H 0 Z"
       style="fill:#54565b;fill-opacity:1;fill-rule:nonzero;stroke:none"
       transform="matrix(1.3333333,0,0,-1.3333333,602.92747,261.94387)" />
    <path
       id="path35"
       d="M 0,0 H -5.739 V 9.706 H 0 V 26.248 H 11.225 V 9.706 h 6.668 V 0 H 11.225 V -35.111 H 0 Z"
       style="fill:#54565b;fill-opacity:1;fill-rule:nonzero;stroke:none"
       transform="matrix(1.3333333,0,0,-1.3333333,643.43813,261.94387)" />
    <path
       id="path36"
       d="m 0,0 h 11.225 v -5.148 c 3.883,4.22 8.552,6.33 14.011,6.33 5.963,0 10.324,-2.673 13.082,-8.018 4.22,5.345 9.227,8.018 15.023,8.018 4.951,0 8.748,-1.52 11.394,-4.558 2.587,-2.983 3.882,-7.119 3.882,-12.407 V -44.816 H 57.392 v 24.729 c 0,7.314 -2.561,10.972 -7.68,10.972 -2.926,0 -5.262,-1.126 -7.005,-3.376 -1.802,-2.363 -2.701,-5.768 -2.701,-10.213 V -44.816 H 28.78 v 21.69 c 0,4.67 -0.535,8.103 -1.603,10.297 -1.238,2.475 -3.348,3.714 -6.33,3.714 -2.87,0 -5.177,-1.154 -6.921,-3.461 -1.801,-2.42 -2.701,-5.852 -2.701,-10.296 V -44.816 H 0 Z"
       style="fill:#54565b;fill-opacity:1;fill-rule:nonzero;stroke:none"
       transform="matrix(1.3333333,0,0,-1.3333333,675.39627,249.00253)" />
    <path
       id="path37"
       d="m 0,0 c 2.363,2.532 3.545,5.795 3.545,9.79 0,3.883 -1.154,7.061 -3.461,9.538 -2.308,2.418 -5.261,3.629 -8.862,3.629 -3.601,0 -6.528,-1.295 -8.777,-3.883 -2.195,-2.476 -3.292,-5.599 -3.292,-9.368 0,-3.827 1.125,-7.005 3.376,-9.537 2.307,-2.532 5.204,-3.798 8.693,-3.798 3.545,0 6.47,1.209 8.778,3.629 m -25.742,-7.343 c -4.277,4.558 -6.414,10.213 -6.414,16.965 0,6.92 2.053,12.603 6.161,17.049 4.051,4.388 9.03,6.583 14.938,6.583 5.345,0 10.044,-2.026 14.096,-6.077 v 4.895 H 14.264 V -12.745 H 3.039 v 4.727 c -4.052,-3.939 -8.666,-5.908 -13.842,-5.908 -5.853,0 -10.832,2.194 -14.939,6.583"
       style="fill:#54565b;fill-opacity:1;fill-rule:nonzero;stroke:none"
       transform="matrix(1.3333333,0,0,-1.3333333,818.8764,291.7652)" />
    <path
       id="path38"
       d="m 0,0 h 11.225 v -4.558 c 4.558,3.826 8.975,5.74 13.251,5.74 4.332,0 7.934,-1.351 10.803,-4.052 3.039,-2.869 4.558,-6.639 4.558,-11.309 V -44.816 H 28.612 v 21.184 c 0,5.064 -0.422,8.58 -1.266,10.55 -1.07,2.644 -3.18,3.967 -6.33,3.967 -2.87,0 -5.178,-1.126 -6.921,-3.376 -1.914,-2.477 -2.87,-5.88 -2.87,-10.213 V -44.816 H 0 Z"
       style="fill:#54565b;fill-opacity:1;fill-rule:nonzero;stroke:none"
       transform="matrix(1.3333333,0,0,-1.3333333,850.7228,249.00253)" />
    <path
       id="path39"
       d="m 0,0 h 11.225 v -4.558 c 4.558,3.826 8.975,5.74 13.251,5.74 4.332,0 7.934,-1.351 10.803,-4.052 3.039,-2.869 4.558,-6.639 4.558,-11.309 V -44.816 H 28.612 v 21.184 c 0,5.064 -0.422,8.58 -1.266,10.55 -1.07,2.644 -3.18,3.967 -6.33,3.967 -2.87,0 -5.178,-1.126 -6.921,-3.376 -1.914,-2.477 -2.87,-5.88 -2.87,-10.213 V -44.816 H 0 Z"
       style="fill:#54565b;fill-opacity:1;fill-rule:nonzero;stroke:none"
       transform="matrix(1.3333333,0,0,-1.3333333,915.99133,249.00253)" />
  </g>
</svg>
